<svg fill="none" height="95" viewBox="0 0 225 95" width="225" xmlns="http://www.w3.org/2000/svg"><path clip-rule="evenodd" d="m88.9204 8.2215v49.4325h9.7455v-18.0079h12.0051c9.674 0 16.877-6.7076 16.877-15.8175 0-9.0397-6.92-15.6071-16.524-15.6071zm21.0456 23.0929h-11.3001v-14.4064h11.3001c4.66 0 7.909 2.9659 7.909 7.2034 0 4.2367-3.249 7.203-7.909 7.203zm31.14-25.91665-8.967 2.82375v49.4325h8.967zm21.82 52.75125c4.38 0 8.334-1.6241 11.3-4.3793v3.8843h8.968v-35.2373h-8.968v3.8828c-2.825-2.8241-6.71-4.4483-10.945-4.4483-9.18 0-17.514 7.6264-17.514 18.1482 0 10.5217 8.192 18.1496 17.159 18.1496zm1.555-8.0513c-5.437 0-9.817-4.1666-9.817-10.0983 0-5.9318 4.38-10.0984 9.817-10.0984 5.508 0 9.815 4.1666 9.815 10.0984 0 5.9317-4.307 10.0983-9.815 10.0983zm60.519-27.681h-9.392l-10.029 20.7608-10.239-20.7608h-10.027l15.112 30.7879-10.098 20.0565h9.745zm-173.5298 20.5853-2.8792-4.5964h-8.4064l2.8838-4.6046h2.6557l-3.21-5.1255-8.955 14.3265h-23.89085l5.75215-9.201h-4.2237l2.8714-4.6043h18.4673l-2.8729 4.6043h-8.808l-2.8792 4.6046h13.0293l11.5095-18.42 14.3839 23.0164zm-31.6477-23.0164h18.9431l-2.8792 4.6065h-18.9413zm13.1287-19.9856c-18.1976 0-32.9512 14.7544-32.9512 32.9531 0 18.2029 14.7536 32.9509 32.9512 32.9509 18.1973 0 32.9532-14.748 32.9532-32.9509 0-18.1987-14.7559-32.9531-32.9532-32.9531z" fill="#ff4747" fill-rule="evenodd"/></svg>