<svg width="100" height="100" viewBox="0 0 100 100" fill="none" xmlns="http://www.w3.org/2000/svg">
<g clip-path="url(#clip0_2910_2386)">
<path d="M88 0H12C5.37258 0 0 5.37258 0 12V88C0 94.6274 5.37258 100 12 100H88C94.6274 100 100 94.6274 100 88V12C100 5.37258 94.6274 0 88 0Z" fill="white"/>
<path d="M50.1429 55.3685C50.9594 55.3712 51.7333 55.3929 51.7333 55.3929C61.4028 55.7932 67.2193 57.8762 70.7182 61.0015C70.5784 61.0005 70.435 61 70.2885 61C68.8176 61 67.4858 61.5962 66.5218 62.5602C65.7738 63.3082 65.2472 64.2776 65.0488 65.3617C62.4917 63.647 58.306 62.7288 51.456 62.4447H48.544C35.0131 62.9996 31.8897 66.0051 31.1515 72.7136L31.1275 72.9412L57.1719 72.9411C57.0597 73.3714 57 73.823 57 74.2885V78.7115C57 79.1562 57.0545 79.5881 57.1571 80.001L24 80L24.0004 78.9172C24.0152 67.2666 24.617 56.3618 48.2667 55.3929C48.2667 55.3775 48.909 55.3702 49.6548 55.3686L50.1429 55.3685ZM50 20C58.6156 20 65.6 27.1108 65.6 35.8824C65.6 44.6539 58.6156 51.7647 50 51.7647C41.3844 51.7647 34.4 44.6539 34.4 35.8824C34.4 27.1108 41.3844 20 50 20ZM50 27.0588C45.2135 27.0588 41.3333 31.0093 41.3333 35.8824C41.3333 40.7555 45.2135 44.7059 50 44.7059C54.7865 44.7059 58.6667 40.7555 58.6667 35.8824C58.6667 31.0093 54.7865 27.0588 50 27.0588ZM74.7308 86C75.3042 86 75.7692 85.5351 75.7692 84.9615V79.7692H80.9615C81.535 79.7692 82 79.3043 82 78.7308V75.2692C82 74.6957 81.5351 74.2308 80.9615 74.2308H75.7692V69.0385C75.7692 68.465 75.3043 68 74.7308 68H71.2692C70.6957 68 70.2308 68.4649 70.2308 69.0385V74.2308H65.0385C64.465 74.2308 64 74.6957 64 75.2692V78.7308C64 79.3043 64.4649 79.7692 65.0385 79.7692H70.2308V84.9615C70.2308 85.535 70.6957 86 71.2692 86H74.7308Z" fill="black"/>
</g>
<defs>
<clipPath id="clip0_2910_2386">
<rect width="100" height="100" fill="white"/>
</clipPath>
</defs>
</svg>
