<svg width="100" height="100" viewBox="0 0 100 100" fill="none" xmlns="http://www.w3.org/2000/svg">
<g clip-path="url(#clip0_2910_2395)">
<path d="M88 0H12C5.37258 0 0 5.37258 0 12V88C0 94.6274 5.37258 100 12 100H88C94.6274 100 100 94.6274 100 88V12C100 5.37258 94.6274 0 88 0Z" fill="white"/>
<path d="M49.1429 55.3685C49.9594 55.3712 50.7333 55.3929 50.7333 55.3929C74.948 56.3953 75 67.9506 75 80H23C23 67.9506 22.8856 56.3918 47.2667 55.3929C47.2667 55.3775 47.909 55.3702 48.6548 55.3686L49.1429 55.3685ZM50.456 62.4447H47.544C33.8611 63.0059 30.8208 66.0729 30.1275 72.9412H67.8656C67.1619 66.08 64.0731 63.0094 50.456 62.4447ZM49 20C57.6156 20 64.6 27.1108 64.6 35.8824C64.6 44.6539 57.6156 51.7647 49 51.7647C40.3844 51.7647 33.4 44.6539 33.4 35.8824C33.4 27.1108 40.3844 20 49 20ZM49 27.0588C44.2135 27.0588 40.3333 31.0093 40.3333 35.8824C40.3333 40.7555 44.2135 44.7059 49 44.7059C53.7865 44.7059 57.6667 40.7555 57.6667 35.8824C57.6667 31.0093 53.7865 27.0588 49 27.0588Z" fill="black"/>
</g>
<defs>
<clipPath id="clip0_2910_2395">
<rect width="100" height="100" fill="white"/>
</clipPath>
</defs>
</svg>
