<svg width="100" height="100" viewBox="0 0 100 100" fill="none" xmlns="http://www.w3.org/2000/svg">
<g clip-path="url(#clip0_2910_2391)">
<path d="M88 0H12C5.37258 0 0 5.37258 0 12V88C0 94.6274 5.37258 100 12 100H88C94.6274 100 100 94.6274 100 88V12C100 5.37258 94.6274 0 88 0Z" fill="white"/>
<path d="M79.3247 66.5482C81.2474 69.8601 78.834 74 74.9938 74H25.0057C21.1581 74 18.7558 69.8537 20.6747 66.5482L45.6691 23.4828C47.5927 20.1694 52.4108 20.1754 54.331 23.4828L79.3247 66.5482ZM50 57.6445C47.3537 57.6445 45.2084 59.7764 45.2084 62.4062C45.2084 65.0361 47.3537 67.168 50 67.168C52.6464 67.168 54.7917 65.0361 54.7917 62.4062C54.7917 59.7764 52.6464 57.6445 50 57.6445ZM45.4508 40.5286L46.2235 54.6068C46.2596 55.2655 46.8077 55.7812 47.4716 55.7812H52.5285C53.1923 55.7812 53.7404 55.2655 53.7766 54.6068L54.5493 40.5286C54.5884 39.8171 54.0182 39.2188 53.3012 39.2188H46.6988C45.9817 39.2188 45.4117 39.8171 45.4508 40.5286Z" fill="black"/>
</g>
<defs>
<clipPath id="clip0_2910_2391">
<rect width="100" height="100" fill="white"/>
</clipPath>
</defs>
</svg>
