<svg width="100" height="100" viewBox="0 0 100 100" fill="none" xmlns="http://www.w3.org/2000/svg">
<g clip-path="url(#clip0_2910_2400)">
<path d="M88 0H12C5.37258 0 0 5.37258 0 12V88C0 94.6274 5.37258 100 12 100H88C94.6274 100 100 94.6274 100 88V12C100 5.37258 94.6274 0 88 0Z" fill="white"/>
<path d="M56.6199 43.3804C62.2212 48.9875 62.1443 57.9771 56.6537 63.4982C56.6434 63.5094 56.6312 63.5216 56.6199 63.5329L50.3199 69.8329C44.7634 75.3894 35.7231 75.3887 30.1674 69.8329C24.6109 64.2773 24.6109 55.236 30.1674 49.6804L33.6461 46.2017C34.5686 45.2792 36.1573 45.8924 36.2049 47.196C36.2657 48.8575 36.5636 50.5267 37.1134 52.1386C37.2995 52.6844 37.1665 53.2882 36.7587 53.696L35.5318 54.9229C32.9044 57.5503 32.822 61.8285 35.4235 64.4816C38.0508 67.1609 42.3691 67.1768 45.0165 64.5294L51.3165 58.2304C53.9594 55.5875 53.9483 51.3157 51.3165 48.6838C50.9695 48.3375 50.62 48.0685 50.347 47.8805C49.9554 47.6116 49.7139 47.1734 49.6957 46.6987C49.6586 45.708 50.0096 44.6872 50.7924 43.9044L52.7662 41.9305C53.2838 41.4129 54.0958 41.3493 54.696 41.7682C55.3833 42.2482 56.0271 42.7876 56.6199 43.3804ZM69.8326 30.1671C64.2769 24.6113 55.2366 24.6106 49.6801 30.1671L43.3801 36.4671C43.3688 36.4784 43.3566 36.4906 43.3463 36.5018C37.8558 42.0229 37.7788 51.0125 43.3801 56.6196C43.9728 57.2123 44.6166 57.7518 45.3039 58.2317C45.9041 58.6506 46.7162 58.5869 47.2337 58.0694L49.2075 56.0955C49.9903 55.3127 50.3413 54.2919 50.3042 53.3012C50.286 52.8265 50.0445 52.3883 49.6529 52.1194C49.3799 51.9314 49.0304 51.6624 48.6834 51.3161C46.0516 48.6842 46.0405 44.4124 48.6834 41.7695L54.9834 35.4705C57.6308 32.8231 61.9491 32.839 64.5764 35.5183C67.178 38.1714 67.0956 42.4496 64.4681 45.077L63.2412 46.3039C62.8334 46.7117 62.7004 47.3155 62.8866 47.8613C63.4363 49.4732 63.7342 51.1424 63.795 52.8039C63.8427 54.1076 65.4313 54.7207 66.3538 53.7982L69.8325 50.3195C75.3892 44.764 75.3892 35.7227 69.8326 30.1671Z" fill="black"/>
</g>
<defs>
<clipPath id="clip0_2910_2400">
<rect width="100" height="100" fill="white"/>
</clipPath>
</defs>
</svg>
